<svg width="1292" height="221" viewBox="0 0 1292 221" fill="none" xmlns="http://www.w3.org/2000/svg">
<path d="M371 220H215V1H367.88V29.1572H244.64V94.8571V123.014V188.714H371V220Z" fill="#343F3F"/>
<path d="M347.964 95.8043L253.78 97.3669L269.053 125.592L367.433 124.035L347.964 95.8043Z" fill="#343F3F"/>
<path d="M1137.81 221H1108V2H1161.34L1260.19 201.916V2H1290V221H1236.66L1137.81 21.0843V221Z" fill="#343F3F"/>
<path d="M894 220H926.016L951.754 144.914L993.5 23.8386L1035.25 144.914L1060.98 220H1093L1017.67 1H969.331L894 220Z" fill="#343F3F"/>
<path fill-rule="evenodd" clip-rule="evenodd" d="M491.448 84.5687L502.844 101.575H503.44L503.185 102.111L514.187 118.508L581.877 220.142H581.861L581.865 220.148H546.082L542.367 214.574L493.611 141.721L441.427 220.142H407.134L461.704 138.27H491.516L490.097 136.141L478.701 119.135H478.105L478.36 118.599L467.358 102.202L399.668 0.568067H399.684L399.68 0.562012H435.463L439.177 6.13432L487.934 78.9896L540.118 0.568067H574.41L519.841 82.4401H490.029L491.448 84.5687Z" fill="#343F3F"/>
<path d="M647.688 220H618V0H671.125L743 198.314L814.875 0H868V220H838.313V25.7714L768 220H718L647.688 25.7714V220Z" fill="#343F3F"/>
<path d="M29.8103 220H0V0H53.3448L152.19 200.845V0.186721H182V220H128.655L29.8103 19.1551V220Z" fill="#343F3F"/>
</svg>
