<svg width="127" height="31" viewBox="0 0 127 31" fill="none" xmlns="http://www.w3.org/2000/svg">
<g style="mix-blend-mode:plus-darker">
<path d="M2.84436 25.945H0V4.96875H5.08991L14.5212 24.1186V4.98655H17.3656V25.945H12.2757L2.84436 6.79513V25.945Z" fill="#343F3F"/>
<path d="M35.5016 26.0014H20.5312V5.04297H35.2022V7.73763H23.3756V14.0252V16.7198V23.0074H35.5016V26.0014Z" fill="#343F3F"/>
<path d="M33.2787 14.1085L24.2712 14.2579L25.7319 16.9573L35.1406 16.8083L33.2787 14.1085Z" fill="#343F3F"/>
<path fill-rule="evenodd" clip-rule="evenodd" d="M55.6406 26H52.2184L47.1992 18.5L42.2084 26H38.9288L44.1477 18.17H46.9995L45.7732 16.34H45.7162L45.7424 16.2848L44.6925 14.72L39.5836 7.04921L38.2158 5H38.2188L38.2188 5H41.641L46.6602 12.5L51.651 5H54.9306L49.7117 12.83H46.8599L48.0862 14.66H48.1432L48.117 14.7152L49.1669 16.28L54.276 23.951L55.6436 26L55.6406 26Z" fill="#343F3F"/>
<path d="M61.9069 25.9467H59.0625V4.98828H64.1524L71.0388 23.8808L77.9251 4.98828H83.015V25.9467H80.1707V7.44342L73.434 25.9467H68.6435L61.9069 7.44342V25.9467Z" fill="#343F3F"/>
<path d="M85.5234 26.0014H88.5774L91.0325 18.8157L95.0146 7.22864L98.9967 18.8157L101.452 26.0014H104.506L97.3201 5.04297H92.7092L85.5234 26.0014Z" fill="#343F3F"/>
<path d="M109.126 26.0014H106.281V5.04297H111.371L120.802 24.175V5.04297H123.647V26.0014H118.557L109.126 6.86935V26.0014Z" fill="#343F3F"/>
</g>
</svg>
