<svg width="185" height="36" viewBox="0 0 185 36" fill="none" xmlns="http://www.w3.org/2000/svg">
<g clip-path="url(#clip0_510_85233)">
<path d="M57.9055 15.1405C57.8397 15.1405 57.7871 15.1278 57.7345 15.0767L50.0898 8.71925V15.0129C50.0898 15.1023 50.0504 15.1405 49.9583 15.1405H48.4714C48.3793 15.1405 48.3398 15.1023 48.3398 15.0129V6.76609C48.3398 6.67672 48.3793 6.63843 48.4714 6.63843H49.9978C50.0635 6.63843 50.1162 6.65119 50.1688 6.70225L57.8135 12.9321V6.76609C57.8135 6.67672 57.8529 6.63843 57.945 6.63843H59.4318C59.524 6.63843 59.5634 6.67672 59.5634 6.76609V15.0129C59.5634 15.1023 59.524 15.1405 59.4318 15.1405H57.9055Z" fill="#899292"/>
<path d="M77.1307 14.9874C77.1701 15.0767 77.1439 15.1405 77.0388 15.1405H75.3548C75.2891 15.1405 75.2366 15.115 75.1972 15.0512L74.5259 13.8894H67.7496L67.0785 15.0512C67.039 15.115 66.9864 15.1405 66.9206 15.1405H65.2364C65.1312 15.1405 65.0917 15.0767 65.1443 14.9874L69.96 6.72779C69.9995 6.66396 70.0521 6.63843 70.1179 6.63843H72.1837C72.2494 6.63843 72.3019 6.66396 72.3413 6.72779L77.1307 14.9874ZM73.6182 12.3448L71.1311 8.04267L68.6443 12.3321H73.6182V12.3448Z" fill="#899292"/>
<path d="M93.7743 6.63843C93.8662 6.63843 93.9056 6.67672 93.9056 6.76609V15.0129C93.9056 15.1023 93.8662 15.1405 93.7743 15.1405H92.2873C92.1953 15.1405 92.1559 15.1023 92.1559 15.0129V9.95757C92.1559 10.0214 92.1428 10.0725 92.1165 10.1235L89.222 15.0639C89.1826 15.1278 89.1293 15.1533 89.0637 15.1533H87.5241C87.4585 15.1533 87.4059 15.1278 87.3665 15.0639L84.4852 10.1235C84.472 10.098 84.4589 10.0725 84.4458 10.0342V15.0129C84.4458 15.1023 84.4064 15.1405 84.3137 15.1405H82.8274C82.7347 15.1405 82.6953 15.1023 82.6953 15.0129V6.76609C82.6953 6.67672 82.7347 6.63843 82.8274 6.63843H84.3137C84.3801 6.63843 84.4064 6.65119 84.4326 6.68949L88.3005 13.1491L92.1691 6.68949C92.1822 6.65119 92.2216 6.63843 92.2873 6.63843H93.7743Z" fill="#899292"/>
<path d="M101.786 10.098H110.983C111.075 10.098 111.116 10.1363 111.116 10.2256V11.5278C111.116 11.6172 111.075 11.6554 110.983 11.6554H101.786V13.5831H110.983C111.075 13.5831 111.116 13.6214 111.116 13.7108V15.0129C111.116 15.1023 111.075 15.1405 110.983 15.1405H100.155C100.063 15.1405 100.023 15.1023 100.023 15.0129V6.76609C100.023 6.67672 100.063 6.63843 100.155 6.63843H110.983C111.075 6.63843 111.116 6.67672 111.116 6.76609V8.06825C111.116 8.15757 111.075 8.1959 110.983 8.1959H101.786V10.098Z" fill="#899292"/>
<path d="M128.522 6.63843C128.614 6.63843 128.654 6.67672 128.654 6.76609V8.06825C128.654 8.15757 128.614 8.1959 128.522 8.1959H123.523V15.0129C123.523 15.1023 123.483 15.1405 123.391 15.1405H121.904C121.812 15.1405 121.772 15.1023 121.772 15.0129V8.1959H116.773C116.68 8.1959 116.641 8.15757 116.641 8.06825V6.76609C116.641 6.67672 116.68 6.63843 116.773 6.63843H128.522Z" fill="#899292"/>
<path d="M140.484 10.7874L145.629 15.0001C145.708 15.0767 145.629 15.1405 145.524 15.1405H143.247C143.182 15.1405 143.155 15.1023 143.103 15.0384L138.931 11.6172H135.971V15.0129C135.971 15.1023 135.932 15.1405 135.84 15.1405H134.353C134.261 15.1405 134.221 15.1023 134.221 15.0129V6.76609C134.221 6.67672 134.261 6.63843 134.353 6.63843H135.84C135.932 6.63843 135.971 6.67672 135.971 6.76609V10.0597H138.866L142.997 6.74055C143.063 6.67672 143.076 6.63843 143.142 6.63843H145.419C145.524 6.63843 145.603 6.70225 145.524 6.77885L140.484 10.7874Z" fill="#899292"/>
<path d="M157.88 8.1959V13.5831H162.564C162.656 13.5831 162.696 13.6214 162.696 13.7108V15.0129C162.696 15.1023 162.656 15.1405 162.564 15.1405H151.433C151.34 15.1405 151.301 15.1023 151.301 15.0129V13.7108C151.301 13.6214 151.34 13.5831 151.433 13.5831H156.116V8.1959H151.433C151.34 8.1959 151.301 8.15757 151.301 8.06825V6.76609C151.301 6.67672 151.34 6.63843 151.433 6.63843H162.564C162.656 6.63843 162.696 6.67672 162.696 6.76609V8.06825C162.696 8.15757 162.656 8.1959 162.564 8.1959H157.88Z" fill="#899292"/>
<path d="M178.128 15.1405C178.063 15.1405 178.01 15.1278 177.957 15.0767L170.313 8.71925V15.0129C170.313 15.1023 170.274 15.1405 170.182 15.1405H168.695C168.603 15.1405 168.562 15.1023 168.562 15.0129V6.76609C168.562 6.67672 168.603 6.63843 168.695 6.63843H170.221C170.287 6.63843 170.339 6.65119 170.392 6.70225L178.036 12.9321V6.76609C178.036 6.67672 178.076 6.63843 178.168 6.63843H179.655C179.747 6.63843 179.787 6.67672 179.787 6.76609V15.0129C179.787 15.1023 179.747 15.1405 179.655 15.1405H178.128Z" fill="#899292"/>
<path d="M59.815 21.3586C59.9071 21.3586 59.9466 21.397 59.9466 21.4863V22.7884C59.9466 22.8778 59.9071 22.9161 59.815 22.9161H54.8151V29.7331C54.8151 29.8225 54.7757 29.8608 54.6835 29.8608H53.1967C53.1046 29.8608 53.0651 29.8225 53.0651 29.7331V22.9161H48.0652C47.9731 22.9161 47.9336 22.8778 47.9336 22.7884V21.4863C47.9336 21.397 47.9731 21.3586 48.0652 21.3586H59.815Z" fill="#899292"/>
<path d="M77.0371 25.6218C77.0371 25.7494 77.0371 25.8388 77.024 25.8899C76.9452 27.2558 76.2477 28.3282 75.1554 28.9537C74.077 29.5665 72.7607 29.8601 71.2478 29.8856H70.9847C69.4716 29.8601 68.1558 29.5665 67.0636 28.9537C65.9847 28.3282 65.2874 27.2558 65.2084 25.8899C65.1953 25.8261 65.1953 25.7494 65.1953 25.6218V25.609V25.5963C65.1953 25.4814 65.1953 25.392 65.2084 25.3282C65.2874 23.9623 65.9847 22.8771 67.0636 22.2643C68.1558 21.6388 69.4584 21.3325 70.9847 21.3069H71.2478C72.7607 21.3325 74.077 21.6388 75.1554 22.2643C76.2477 22.8771 76.9452 23.9623 77.024 25.3282C77.0371 25.4048 77.0371 25.4941 77.0371 25.6218ZM71.2478 28.2899C72.1952 28.2771 73.116 28.0729 73.9186 27.6643C74.7344 27.2558 75.2875 26.5282 75.2875 25.609C75.2875 24.6899 74.7344 23.9623 73.9186 23.5537C73.116 23.1452 72.1952 22.9282 71.2478 22.9282H70.9978C70.0505 22.9409 69.1294 23.1452 68.3137 23.5537C67.5111 23.9494 66.9584 24.6899 66.9584 25.609C66.9584 26.5282 67.5111 27.2558 68.3137 27.6643C69.1294 28.0601 70.0505 28.2771 70.9978 28.2899H71.2478Z" fill="#899292"/>
<path d="M93.7743 21.3586C93.8662 21.3586 93.9056 21.397 93.9056 21.4863V29.7331C93.9056 29.8225 93.8662 29.8608 93.7743 29.8608H92.2873C92.2216 29.8608 92.1953 29.848 92.1691 29.8097L88.3005 23.2608L84.4326 29.8097C84.4195 29.848 84.3801 29.8608 84.3137 29.8608H82.8274C82.7347 29.8608 82.6953 29.8225 82.6953 29.7331V21.4863C82.6953 21.397 82.7347 21.3586 82.8274 21.3586H84.3137C84.4064 21.3586 84.4458 21.397 84.4458 21.4863V26.465C84.4589 26.4267 84.472 26.4012 84.4852 26.3884L87.3665 21.448C87.4059 21.3841 87.4585 21.3586 87.5241 21.3586H89.0637C89.1293 21.3586 89.1826 21.3841 89.222 21.448L92.1165 26.3884C92.1428 26.4395 92.1559 26.4906 92.1559 26.5544V21.499C92.1559 21.4097 92.1953 21.3714 92.2873 21.3714H93.7743V21.3586Z" fill="#899292"/>
<path d="M101.786 24.8182H110.983C111.075 24.8182 111.116 24.8565 111.116 24.9459V26.248C111.116 26.3374 111.075 26.3757 110.983 26.3757H101.786V28.3033H110.983C111.075 28.3033 111.116 28.3416 111.116 28.431V29.7331C111.116 29.8225 111.075 29.8608 110.983 29.8608H100.155C100.063 29.8608 100.023 29.8225 100.023 29.7331V21.4863C100.023 21.397 100.063 21.3586 100.155 21.3586H110.983C111.075 21.3586 111.116 21.397 111.116 21.4863V22.7884C111.116 22.8778 111.075 22.9161 110.983 22.9161H101.786V24.8182Z" fill="#899292"/>
<path d="M126.84 29.8608C126.761 29.8608 126.709 29.8225 126.682 29.7586L125.235 26.465H118.788V29.7331C118.788 29.8225 118.748 29.8608 118.655 29.8608H117.169C117.076 29.8608 117.037 29.8225 117.037 29.7331V21.4863C117.037 21.397 117.076 21.3586 117.169 21.3586H125.998C126.722 21.3586 127.353 21.6012 127.853 22.1119C128.366 22.6097 128.629 23.2097 128.629 23.9119C128.629 24.4352 128.485 24.9076 128.195 25.3288C127.906 25.7501 127.524 26.0565 127.037 26.2608L128.563 29.7076C128.603 29.8097 128.577 29.8608 128.471 29.8608H126.84ZM118.788 22.9161V24.9076H125.998C126.247 24.9076 126.458 24.8054 126.616 24.6012C126.787 24.3841 126.866 24.1544 126.866 23.9119C126.866 23.6692 126.774 23.4395 126.616 23.2352C126.445 23.0182 126.234 22.9161 125.998 22.9161H118.788Z" fill="#899292"/>
<path d="M37.7228 30.2045L19.2889 18.6386L18.9336 18.0002V6.43429L19.723 5.66833H38.157L38.9465 6.43429V29.579L37.7228 30.2045ZM20.4993 17.5917L37.3544 28.1747V7.18748H20.4993V17.5917Z" fill="#899292"/>
<path d="M19.7234 30.333H1.28946L0.5 29.5671V6.43517L1.71051 5.79688L20.1445 17.3628L20.4997 18.0011V29.5671L19.7234 30.333ZM2.07892 28.8139H18.934V18.4224L2.07892 7.83946V28.8139Z" fill="#899292"/>
</g>
<defs>
<clipPath id="clip0_510_85233">
<rect width="184" height="36" fill="white" transform="translate(0.5)"/>
</clipPath>
</defs>
</svg>
