<svg width="170" height="37" viewBox="0 0 170 37" fill="none" xmlns="http://www.w3.org/2000/svg">
<g clip-path="url(#clip0_510_85249)">
<path d="M49.0885 0.115234H43.6152V20.9782H49.0885V0.115234Z" fill="#899292"/>
<path d="M37.249 20.9781H42.7222L35.2384 0.115112H35.1266H29.8769H29.6535L22.2812 20.9781H27.7545L28.6482 18.327H36.2437L37.249 20.9781ZM30.3236 13.7164L32.4459 7.60733L34.5682 13.7164H30.3236Z" fill="#899292"/>
<path d="M66.2915 20.9782L69.1956 12.6791V0.115234H63.7224V10.8349L57.3556 0.115234H51.9941V0.806823V20.9782H57.3556V10.028L63.7224 20.8629V20.9782H66.2915Z" fill="#899292"/>
<path d="M21.1642 0.115234H20.7174H15.691L10.7763 10.6043L5.97323 0.115234H5.86153H3.29247L0.5 8.06851V20.9782H5.86153V10.8349L8.654 16.8286H12.8985L15.691 10.7196V20.9782H21.1642V0.115234Z" fill="#899292"/>
<path d="M117.002 14.0622C116.332 12.9095 115.773 12.1027 114.656 11.6416C117.784 11.4111 119.683 9.3363 119.683 5.99362C119.683 2.30515 117.449 0.115112 113.874 0.115112H105.273V21.0933H106.279C106.502 21.0933 106.614 20.9781 106.614 20.7475V11.9874H111.305C113.651 11.9874 114.768 12.7943 115.773 14.7538L118.901 21.2086H119.459H120.018H120.464L117.002 14.0622ZM114.098 10.489H106.614V1.26776H113.763C116.89 1.26776 118.566 3.112 118.342 6.45468C118.119 8.75997 116.332 10.489 114.098 10.489Z" fill="#899292"/>
<path d="M74.4453 2.3056C75.4506 1.38348 77.0144 0.922423 78.9133 0.922423C82.1525 0.922423 83.9397 2.19033 85.1684 4.84142L85.3918 5.18722L85.7269 5.07195L86.2854 4.84142L86.6205 4.72616L86.5088 4.38036C85.0567 1.26821 82.8227 -0.230225 79.025 -0.230225C77.5729 -0.230225 76.2325 0.000305265 75.2272 0.461364L74.4453 2.3056Z" fill="#899292"/>
<path d="M79.5822 9.79751C76.5663 9.45172 73.5505 8.99066 73.2154 5.99377L72.4335 8.1838C73.6622 10.3738 76.5663 10.8349 79.2471 11.1807C82.3747 11.5265 85.2788 11.9875 85.2788 15.4455C85.2788 18.5576 83.1566 20.0561 79.0237 20.0561C75.7845 20.0561 73.7739 18.6729 72.5452 15.676V15.3302L72.4335 15.4455L71.875 17.0592C73.3271 20.0561 75.5611 21.4392 79.2471 21.4392C84.2735 21.4392 86.8426 19.2492 86.8426 15.4455C86.6192 10.8349 83.0449 10.1433 79.5822 9.79751Z" fill="#899292"/>
<path d="M134.648 19.7103H124.93V10.9502H137.776L138.334 9.68224H124.93V1.26791H141.35L141.908 0H123.59V20.9782H134.201L134.648 19.7103Z" fill="#899292"/>
<path d="M145.709 0L145.262 1.26791H161.57V20.9782H162.91V1.26791H169.5V0H145.709Z" fill="#899292"/>
<path d="M88.0703 0V1.26791H88.4054H94.5488V19.3645V20.9782H95.5541H95.8892V20.6324C95.8892 20.6324 95.8892 20.6324 95.8892 20.5171V1.26791H102.033H102.368V0.922118V0H88.0703Z" fill="#899292"/>
<path d="M106.614 19.595H105.273V20.9782H106.614V19.595Z" fill="#899292"/>
<path d="M149.058 19.7102H138.447L138 20.9782H148.611L149.058 19.7102Z" fill="#899292"/>
<path d="M152.633 9.68237H142.133L141.688 10.9503H152.186L152.633 9.68237Z" fill="#899292"/>
<path d="M19.3759 36.7688H19.1525C18.9291 36.7688 18.9291 36.7688 18.8174 36.6535L17.9238 34.8093C17.7004 34.3482 17.3653 34.1177 16.8068 34.1177H16.0249V36.6535C16.0249 36.7688 16.0249 36.7688 15.9132 36.7688H15.6898C15.5781 36.7688 15.5781 36.7688 15.5781 36.6535V31.1208C15.5781 31.0056 15.5781 31.0056 15.6898 31.0056H15.9132C16.0249 31.0056 16.0249 31.0056 16.0249 31.1208V33.5414H16.8068H17.0302L18.8174 31.1208C18.9291 31.0056 18.9291 31.0056 19.1525 31.0056H19.4876C19.5993 31.0056 19.5993 31.1208 19.5993 31.1208L17.7004 33.6567C18.1472 33.7719 18.4823 34.1177 18.7057 34.5788L19.711 36.6535C19.4876 36.7688 19.4876 36.7688 19.3759 36.7688Z" fill="#899292"/>
<path d="M25.7434 32.3888C25.7434 33.0804 25.52 33.5415 24.9615 33.6567C25.52 33.772 25.9668 34.3483 25.9668 35.1552C25.9668 36.1925 25.2966 36.7689 24.2914 36.7689H21.9457C21.834 36.7689 21.834 36.7689 21.834 36.6536V31.1209C21.834 31.0056 21.834 31.0056 21.9457 31.0056H24.1797C25.1849 30.8904 25.7434 31.4667 25.7434 32.3888ZM24.1797 31.4667H22.3925V33.5415H24.1797C24.8498 33.5415 25.1849 33.1957 25.1849 32.5041C25.1849 31.8125 24.8498 31.4667 24.1797 31.4667ZM24.2914 34.1178H22.3925V36.3078H24.2914C24.9615 36.3078 25.4083 35.962 25.4083 35.2704C25.4083 34.4636 24.9615 34.1178 24.2914 34.1178Z" fill="#899292"/>
<path d="M32.782 36.7691H32.5586C32.3352 36.7691 32.3352 36.7691 32.2235 36.6539L31.665 35.0402H29.2076L28.5374 36.6539C28.5374 36.7691 28.4257 36.7691 28.2023 36.7691H27.9789C27.8672 36.7691 27.8672 36.6539 27.8672 36.6539L29.9895 31.0059C29.9895 30.8906 30.1012 30.8906 30.2129 30.8906H30.4363C30.548 30.8906 30.6597 30.8906 30.6597 31.0059L32.782 36.7691C32.8936 36.7691 32.8936 36.7691 32.782 36.7691ZM30.4363 31.4669C30.4363 31.4669 30.4363 31.8127 30.3246 32.0433L29.3193 34.5791H31.4416L30.4363 32.0433C30.4363 31.8127 30.4363 31.4669 30.4363 31.4669Z" fill="#899292"/>
<path d="M39.2591 32.7349C39.2591 33.8876 38.5889 34.5792 37.4719 34.5792H35.7964V36.6539C35.7964 36.7692 35.7964 36.7692 35.6847 36.7692H35.4613C35.3496 36.7692 35.3496 36.7692 35.3496 36.6539V31.1212C35.3496 31.0059 35.3496 31.0059 35.4613 31.0059H37.4719C38.5889 30.8907 39.2591 31.5823 39.2591 32.7349ZM38.7006 32.7349C38.7006 31.9281 38.2538 31.467 37.4719 31.467H35.7964V34.0028H37.4719C38.1421 34.0028 38.7006 33.5418 38.7006 32.7349Z" fill="#899292"/>
<path d="M45.4032 31.1215V31.352C45.4032 31.4673 45.4032 31.4673 45.2915 31.4673H43.7278V36.6542C43.7278 36.7695 43.7278 36.7695 43.6161 36.7695H43.3927C43.281 36.7695 43.281 36.7695 43.281 36.6542V31.4673H41.7172C41.6055 31.4673 41.6055 31.4673 41.6055 31.352V31.1215C41.6055 31.0062 41.6055 31.0062 41.7172 31.0062H45.5149C45.2915 30.891 45.4032 31.0062 45.4032 31.1215Z" fill="#899292"/>
<path d="M51.3226 36.769H51.0992C50.8758 36.769 50.8758 36.769 50.7641 36.6538L50.2056 35.0401H47.7482L47.1897 36.6538C47.1897 36.769 47.078 36.769 46.8546 36.769H46.6312C46.5195 36.769 46.5195 36.6538 46.5195 36.6538L48.6418 31.0058C48.6418 30.8905 48.7535 30.8905 48.8652 30.8905H49.0886C49.2003 30.8905 49.312 30.8905 49.312 31.0058L51.4343 36.6538C51.546 36.769 51.4343 36.769 51.3226 36.769ZM48.9769 31.4668C48.9769 31.4668 48.9769 31.8126 48.8652 32.0432L47.8599 34.579H49.9822L48.9769 32.0432C48.9769 31.8126 48.9769 31.4668 48.9769 31.4668Z" fill="#899292"/>
<path d="M57.7993 31.1215V36.6542C57.7993 36.7695 57.7993 36.7695 57.6876 36.7695H57.4642C57.3525 36.7695 57.3525 36.7695 57.3525 36.6542V31.4673H55.0069V32.9657C55.0069 36.1932 54.3367 36.539 53.6665 36.8848C53.5548 36.8848 53.5548 36.8847 53.4431 36.7695L53.3314 36.539C53.2197 36.4237 53.3314 36.4237 53.4431 36.3084C54.0016 35.9626 54.4484 35.7321 54.4484 32.9657V31.1215C54.4484 31.0062 54.4484 31.0062 54.5601 31.0062H57.5759C57.6876 30.891 57.7993 31.0062 57.7993 31.1215Z" fill="#899292"/>
<path d="M68.3008 31.1215V36.6542C68.3008 36.7695 68.3008 36.7695 68.1891 36.7695H67.9657C67.854 36.7695 67.854 36.7695 67.854 36.6542V34.1184H64.8382V36.6542C64.8382 36.7695 64.8382 36.7695 64.7265 36.7695H64.2797C64.168 36.7695 64.168 36.7695 64.168 36.6542V31.1215C64.168 31.0062 64.168 31.0062 64.2797 31.0062H64.5031C64.6148 31.0062 64.6148 31.0062 64.6148 31.1215V33.5421H67.6306V31.1215C67.6306 31.0062 67.6306 31.0062 67.7423 31.0062H67.9657C68.3008 30.891 68.3008 31.0062 68.3008 31.1215Z" fill="#899292"/>
<path d="M75.4475 36.769H75.2241C75.0007 36.769 75.0007 36.769 74.889 36.6538L74.3305 35.0401H71.8732L71.3147 36.6538C71.3147 36.769 71.203 36.769 70.9796 36.769H70.7562C70.6445 36.769 70.6445 36.6538 70.6445 36.6538L72.7668 31.0058C72.7668 30.8905 72.8785 30.8905 72.9902 30.8905H73.2135C73.3252 30.8905 73.437 30.8905 73.437 31.0058L75.4475 36.769C75.5592 36.769 75.5592 36.769 75.4475 36.769ZM73.1019 31.4668C73.1019 31.4668 73.1019 31.8126 72.9902 32.0432L71.9849 34.579H74.1071L73.2135 32.0432C73.1019 31.8126 73.1019 31.4668 73.1019 31.4668Z" fill="#899292"/>
<path d="M85.3895 36.7688H85.1661C84.9427 36.7688 84.9427 36.7688 84.831 36.6535L83.9374 34.8093C83.714 34.3482 83.379 34.1177 82.8205 34.1177H82.0386V36.6535C82.0386 36.7688 82.0386 36.7688 81.9269 36.7688H81.7035C81.5918 36.7688 81.5918 36.7688 81.5918 36.6535V31.1208C81.5918 31.0056 81.5918 31.0056 81.7035 31.0056H81.9269C82.0386 31.0056 82.0386 31.0056 82.0386 31.1208V33.5414H82.8205H83.0439L84.831 31.1208C84.9427 31.0056 84.9427 31.0056 85.1661 31.0056H85.5012C85.6129 31.0056 85.6129 31.1208 85.6129 31.1208L83.7141 33.6567C84.1608 33.7719 84.4959 34.1177 84.7193 34.5788L85.7246 36.6535C85.5012 36.7688 85.5012 36.7688 85.3895 36.7688Z" fill="#899292"/>
<path d="M91.8687 31.1215L89.1879 36.6542C89.0762 36.7695 89.0762 36.7695 88.9645 36.7695H88.6295C88.5178 36.7695 88.5178 36.6542 88.5178 36.6542L89.2996 35.1558L87.2891 31.1215C87.2891 31.0062 87.2891 31.0062 87.4008 31.0062H87.6242C87.8476 31.0062 87.8476 31.0062 87.9593 31.1215L89.6347 34.4642L91.1985 31.1215C91.3102 31.0062 91.3102 31.0062 91.5336 31.0062H91.757C91.8687 30.891 91.8687 31.0062 91.8687 31.1215Z" fill="#899292"/>
<path d="M97.7906 31.1217V31.3522C97.7906 31.4675 97.7906 31.4675 97.6789 31.4675H96.1151V36.6544C96.1151 36.7697 96.1151 36.7697 96.0034 36.7697H95.5566C95.4449 36.7697 95.4449 36.7697 95.4449 36.6544V31.4675H93.8812C93.7695 31.4675 93.7695 31.4675 93.7695 31.3522V31.1217C93.7695 31.0064 93.7695 31.0064 93.8812 31.0064L97.7906 31.1217C97.7906 31.0064 97.7906 30.8911 97.7906 31.1217Z" fill="#899292"/>
<path d="M104.154 31.1215L101.473 36.6542C101.361 36.7695 101.361 36.7695 101.25 36.7695H100.915C100.803 36.7695 100.803 36.6542 100.803 36.6542L101.585 35.1558L99.5742 31.1215C99.5742 31.0062 99.5742 31.0062 99.6859 31.0062H99.9093C100.133 31.0062 100.133 31.0062 100.244 31.1215L101.92 34.4642L103.484 31.1215C103.595 31.0062 103.595 31.0062 103.819 31.0062H104.042C104.154 30.891 104.154 31.0062 104.154 31.1215Z" fill="#899292"/>
<path d="M109.406 33.7723C110.076 34.0028 110.299 34.5791 110.299 35.1555C110.299 36.1928 109.629 36.8844 108.289 36.8844C106.948 36.8844 106.278 36.3081 106.055 35.5012C106.055 35.386 106.055 35.2707 106.166 35.2707L106.39 35.1555C106.501 35.1555 106.501 35.1555 106.613 35.2707C106.837 35.9623 107.283 36.3081 108.289 36.3081C109.294 36.3081 109.741 35.847 109.741 35.1555C109.741 34.4639 109.406 34.0028 108.735 34.0028H107.395C107.283 34.0028 107.283 34.0028 107.283 33.8875V33.657C107.283 33.5417 107.283 33.5417 107.395 33.5417H108.735C109.406 33.5417 109.741 33.0807 109.741 32.5044C109.741 31.8128 109.294 31.3517 108.4 31.3517C107.395 31.3517 106.948 31.6975 106.725 32.3891C106.725 32.5044 106.613 32.5044 106.501 32.5044L106.278 32.3891C106.166 32.3891 106.166 32.2738 106.166 32.1586C106.501 31.2364 107.06 30.7754 108.4 30.7754C109.629 30.7754 110.299 31.3517 110.299 32.3891C110.188 33.0807 109.964 33.5417 109.406 33.7723Z" fill="#899292"/>
<path d="M114.992 30.7754C116.444 30.7754 117.226 31.5822 117.226 32.8502V34.8097C117.226 36.0776 116.444 36.8844 114.992 36.8844C113.54 36.8844 112.758 36.0776 112.758 34.8097V32.8502C112.758 31.5822 113.54 30.7754 114.992 30.7754ZM114.992 31.3517C113.987 31.3517 113.316 31.928 113.316 32.8502V34.8097C113.316 35.7318 113.875 36.3081 114.992 36.3081C115.997 36.3081 116.556 35.7318 116.556 34.8097V32.8502C116.556 31.928 115.997 31.3517 114.992 31.3517Z" fill="#899292"/>
<path d="M123.814 32.3888C123.814 33.0804 123.59 33.5415 123.032 33.6567C123.59 33.772 124.037 34.3483 124.037 35.1552C124.037 36.1925 123.367 36.7689 122.362 36.7689H120.016C119.904 36.7689 119.904 36.7689 119.904 36.6536V31.1209C119.904 31.0056 119.904 31.0056 120.016 31.0056H122.25C123.255 30.8904 123.814 31.4667 123.814 32.3888ZM122.138 31.4667H120.351V33.5415H122.138C122.808 33.5415 123.144 33.1957 123.144 32.5041C123.144 31.8125 122.808 31.4667 122.138 31.4667ZM122.25 34.1178H120.351V36.3078H122.25C122.92 36.3078 123.367 35.962 123.367 35.2704C123.367 34.4636 123.032 34.1178 122.25 34.1178Z" fill="#899292"/>
<path d="M128.619 30.7754C129.847 30.7754 130.518 31.2364 130.741 32.1586C130.741 32.2738 130.741 32.3891 130.629 32.3891L130.406 32.5044C130.294 32.5044 130.294 32.5044 130.183 32.3891C129.959 31.6975 129.512 31.3517 128.619 31.3517C127.613 31.3517 127.055 31.928 127.055 32.8502V34.8097C127.055 35.7318 127.613 36.3081 128.619 36.3081C129.512 36.3081 129.959 35.9623 130.183 35.2707C130.183 35.1555 130.294 35.1555 130.406 35.1555L130.629 35.2707C130.741 35.2707 130.741 35.386 130.741 35.5012C130.406 36.4234 129.847 36.9997 128.619 36.9997C127.167 36.9997 126.385 36.1928 126.385 34.9249V32.9654C126.385 31.5822 127.167 30.7754 128.619 30.7754Z" fill="#899292"/>
<path d="M137.22 36.7688H136.996C136.773 36.7688 136.773 36.7688 136.661 36.6535L135.768 34.8093C135.544 34.3482 135.209 34.1177 134.651 34.1177H133.869V36.6535C133.869 36.7688 133.869 36.7688 133.757 36.7688H133.534C133.422 36.7688 133.422 36.7688 133.422 36.6535V31.1208C133.422 31.0056 133.422 31.0056 133.534 31.0056H133.757C133.869 31.0056 133.869 31.0056 133.869 31.1208V33.5414H134.651H134.874L136.661 31.1208C136.773 31.0056 136.773 31.0056 136.996 31.0056H137.331C137.443 31.0056 137.443 31.1208 137.443 31.1208L135.544 33.6567C135.991 33.7719 136.326 34.1177 136.549 34.5788L137.555 36.6535C137.331 36.7688 137.331 36.7688 137.22 36.7688Z" fill="#899292"/>
<path d="M141.689 30.7754C143.141 30.7754 143.923 31.5822 143.923 32.8502V34.8097C143.923 36.0776 143.141 36.8844 141.689 36.8844C140.237 36.8844 139.455 36.0776 139.455 34.8097V32.8502C139.455 31.5822 140.237 30.7754 141.689 30.7754ZM141.689 31.3517C140.684 31.3517 140.014 31.928 140.014 32.8502V34.8097C140.014 35.7318 140.572 36.3081 141.689 36.3081C142.694 36.3081 143.253 35.7318 143.253 34.8097V32.8502C143.253 31.928 142.694 31.3517 141.689 31.3517Z" fill="#899292"/>
<path d="M151.63 31.1217V36.6544C151.63 36.7697 151.63 36.7697 151.518 36.7697H151.295C151.183 36.7697 151.183 36.7697 151.183 36.6544V33.3117C151.183 32.8506 151.183 32.3896 151.295 31.8133C151.071 32.2743 150.848 32.7354 150.624 33.0812L149.396 35.2712C149.396 35.3865 149.284 35.3865 149.172 35.3865H149.061C148.949 35.3865 148.949 35.3865 148.837 35.2712L147.608 33.0812C147.385 32.6201 147.162 32.2743 147.05 31.8133C147.162 32.3896 147.162 32.8506 147.162 33.3117V36.6544C147.162 36.7697 147.162 36.7697 147.05 36.7697H146.827C146.715 36.7697 146.715 36.7697 146.715 36.6544V31.1217C146.715 31.0064 146.715 31.0064 146.827 31.0064H147.05C147.162 31.0064 147.273 31.0064 147.273 31.1217L149.284 34.6949L151.295 31.1217C151.406 31.0064 151.406 31.0064 151.518 31.0064L151.63 31.1217C151.63 31.0064 151.63 30.8911 151.63 31.1217Z" fill="#899292"/>
</g>
<defs>
<clipPath id="clip0_510_85249">
<rect width="169" height="37" fill="white" transform="translate(0.5)"/>
</clipPath>
</defs>
</svg>
