<svg width="187" height="34" viewBox="0 0 187 34" fill="none" xmlns="http://www.w3.org/2000/svg">
<path d="M3.60938 25.9257V8.07471H15.0832V11.3745H7.26258V25.9257H3.60938Z" fill="#899292"/>
<path d="M16.3252 16.9999C16.2891 14.4575 17.2092 12.2667 19.0854 10.4275C20.9797 8.58831 23.2167 7.69575 25.7965 7.74988C28.3764 7.69575 30.6134 8.58831 32.5077 10.4275C34.42 12.2667 35.3581 14.4575 35.322 16.9999C35.3581 19.5423 34.42 21.7331 32.5077 23.5723C30.6134 25.4115 28.3764 26.304 25.7965 26.2499C23.2167 26.304 20.9797 25.4115 19.0854 23.5723C17.2092 21.7331 16.2891 19.5423 16.3252 16.9999ZM31.5606 16.9999C31.5606 15.305 31.0103 13.9076 29.9098 12.8077C28.8274 11.6897 27.4653 11.1307 25.8236 11.1307C24.1639 11.1307 22.7928 11.6807 21.7104 12.7806C20.6279 13.8805 20.0867 15.2869 20.0867 16.9999C20.0867 18.7129 20.6279 20.1193 21.7104 21.2192C22.7928 22.3192 24.1639 22.8691 25.8236 22.8691C27.4653 22.8691 28.8274 22.3192 29.9098 21.2192C31.0103 20.1193 31.5606 18.7129 31.5606 16.9999Z" fill="#899292"/>
<path d="M38.4141 25.9257V8.07471H49.888V11.3745H42.0673V25.9257H38.4141Z" fill="#899292"/>
<path d="M51.128 17C51.0919 14.4576 52.0119 12.2668 53.8882 10.4276C55.7822 8.58843 58.0197 7.69588 60.5995 7.75C63.1789 7.69588 65.4163 8.58843 67.3104 10.4276C69.2225 12.2668 70.1607 14.4576 70.1245 17C70.1607 19.5424 69.2225 21.7332 67.3104 23.5724C65.4163 25.4116 63.1789 26.3041 60.5995 26.2501C58.0197 26.3041 55.7822 25.4116 53.8882 23.5724C52.0119 21.7332 51.0919 19.5424 51.128 17ZM66.3634 17C66.3634 15.3051 65.813 13.9077 64.7124 12.8078C63.6299 11.6898 62.2681 11.1309 60.6264 11.1309C58.9667 11.1309 57.5956 11.6808 56.513 12.7807C55.4305 13.8806 54.8895 15.287 54.8895 17C54.8895 18.713 55.4305 20.1194 56.513 21.2193C57.5956 22.3193 58.9667 22.8692 60.6264 22.8692C62.2681 22.8692 63.6299 22.3193 64.7124 21.2193C65.813 20.1194 66.3634 18.713 66.3634 17Z" fill="#899292"/>
<path d="M75.005 8.07471H87.2635V25.9257H83.6104V11.3745H78.4688C78.3969 15.1791 78.1352 18.1632 77.6842 20.327C77.2513 22.4907 76.6379 24.0054 75.8439 24.8708C75.0681 25.7183 74.0218 26.1601 72.705 26.1962C72.1634 26.1962 71.6493 26.106 71.1621 25.9257V22.8153C71.3064 22.8513 71.55 22.8694 71.8929 22.8694C72.9755 22.8694 73.742 21.9768 74.193 20.1917C74.6621 18.4066 74.9238 15.4675 74.9781 11.3745L75.005 8.07471Z" fill="#899292"/>
<path d="M91.373 25.9257V8.07471H95.0261V14.2144H98.2737C100.186 14.2144 101.746 14.7643 102.955 15.8642C104.182 16.9461 104.795 18.3435 104.795 20.0565C104.795 21.8055 104.182 23.221 102.955 24.3028C101.746 25.3847 100.186 25.9257 98.2737 25.9257H91.373ZM95.0261 22.7071H98.2737C99.1395 22.7071 99.816 22.4727 100.303 22.0038C100.809 21.517 101.061 20.8769 101.061 20.0836C101.061 19.2721 100.809 18.623 100.303 18.1362C99.816 17.6493 99.1395 17.4059 98.2737 17.4059H95.0261V22.7071Z" fill="#899292"/>
<path d="M114.682 25.9257V8.07471H129.62V25.9257H125.966V11.3745H118.335V25.9257H114.682Z" fill="#899292"/>
<path d="M145.237 25.9255L144.235 23.5995H136.929L135.927 25.9255H132.004L139.987 7.75H141.205L149.16 25.9255H145.237ZM142.964 20.5973L140.582 14.5658L138.201 20.5973H142.964Z" fill="#899292"/>
<path d="M151.6 25.9257V8.07471H158.31C160.187 8.07471 161.729 8.60664 162.938 9.67051C164.147 10.7343 164.751 12.1227 164.751 13.8357C164.751 15.5306 164.147 16.919 162.938 18.001C161.729 19.0828 160.187 19.6237 158.31 19.6237H155.253V25.9257H151.6ZM155.253 16.4322H158.31C159.159 16.4322 159.817 16.1978 160.286 15.729C160.773 15.2421 161.016 14.611 161.016 13.8357C161.016 13.0784 160.764 12.4653 160.259 11.9965C159.772 11.5277 159.122 11.2933 158.31 11.2933H155.253V16.4322Z" fill="#899292"/>
<path d="M183.39 25.9257H178.979L171.321 16.6215V25.9257H167.668V8.07471H171.321V16.3511L178.14 8.07471H182.497L175.651 16.4863L183.39 25.9257Z" fill="#899292"/>
</svg>
