<svg width="173" height="28" viewBox="0 0 173 28" fill="none" xmlns="http://www.w3.org/2000/svg">
<path fill-rule="evenodd" clip-rule="evenodd" d="M21.3557 7.04218V21.0739L26.571 26.2265V12.1964L21.3557 7.04218ZM20.8725 21.5515H6.67825L11.8953 26.7075H26.0895L20.8725 21.5515ZM5.70466 21.5515V6.5698L0.5 1.41901V26.7075H10.9288L5.71175 21.5515H5.70466ZM6.18262 6.08694H21.3505L26.571 11.2395V0.941406H0.983254L6.18971 6.08694H6.18262Z" fill="#899292"/>
<path fill-rule="evenodd" clip-rule="evenodd" d="M41.015 13.9853C41.015 20.3067 42.8234 22.7459 46.0962 22.7459C49.5058 22.7459 51.2148 20.2862 51.2148 13.9853C51.2148 7.68449 49.4685 5.26986 46.0962 5.26986C42.7239 5.26986 41.015 7.70494 41.015 13.9853ZM57.4658 13.9853C57.4658 22.1392 53.2182 27.0586 46.0962 27.0586C38.9742 27.0586 34.793 22.2827 34.793 13.9853C34.793 5.87664 39.0405 0.953125 46.1253 0.953125C53.21 0.953125 57.4948 5.6962 57.4948 13.9853H57.4658Z" fill="#899292"/>
<path fill-rule="evenodd" clip-rule="evenodd" d="M78.9864 3.684L76.0828 7.0947C74.865 5.95658 73.2552 5.3166 71.5782 5.30326C68.3762 5.30326 66.1278 7.84899 66.1278 13.9531C66.1278 19.9507 68.347 22.5005 71.6864 22.5005C73.6813 22.5005 75.137 21.5289 76.5976 20.4139L79.277 23.8615C78.2425 24.8823 77.013 25.6904 75.6606 26.2392C74.3073 26.788 72.8584 27.0667 71.3959 27.0591C64.4937 27.0591 59.8809 22.4636 59.8809 13.9409C59.8809 5.61067 64.7511 0.941406 71.2174 0.941406C74.6359 0.941406 76.9213 1.94985 78.9913 3.67162L78.9864 3.684Z" fill="#899292"/>
<path fill-rule="evenodd" clip-rule="evenodd" d="M87.8861 15.7831V26.4418H81.9297V1.57031H87.8861V11.1877H95.4435V1.57031H101.404V26.4418H95.4435V15.7831H87.8861Z" fill="#899292"/>
<path fill-rule="evenodd" clip-rule="evenodd" d="M110.661 13.9853C110.661 20.3067 112.477 22.7459 115.746 22.7459C119.164 22.7459 120.877 20.2862 120.877 13.9853C120.877 7.68449 119.127 5.26986 115.746 5.26986C112.365 5.26986 110.661 7.70494 110.661 13.9853ZM127.116 13.9853C127.116 22.1392 122.868 27.0586 115.746 27.0586C108.624 27.0586 104.418 22.2827 104.418 13.9853C104.418 5.87664 108.665 0.953125 115.746 0.953125C122.826 0.953125 127.116 5.6962 127.116 13.9853Z" fill="#899292"/>
<path fill-rule="evenodd" clip-rule="evenodd" d="M138.254 22.1783C141.053 22.1783 143.053 21.6003 143.053 18.8741C143.053 16.3611 141.277 15.4265 138.693 15.4265H136.079V22.1783H138.254ZM136.079 11.5197H138.295C140.784 11.5197 142.07 10.585 142.07 8.50247C142.07 6.41992 140.692 5.73943 137.818 5.73943H136.079V11.5197ZM149.188 19.198C149.188 24.8758 144.538 26.4499 138.221 26.4499H130.119V1.57031H137.237C143.99 1.57031 148.134 3.25512 148.134 7.92449C148.134 11.081 145.844 12.7331 143.517 13.2538C146.317 13.7867 149.184 15.1518 149.184 19.1734L149.188 19.198Z" fill="#899292"/>
<path fill-rule="evenodd" clip-rule="evenodd" d="M161.193 5.84351L158.547 16.83H163.848L161.193 5.84351ZM157.531 21.0853L156.258 26.4146H150.102L157.693 1.53906H164.923L172.501 26.4474H166.171L164.864 21.118L157.531 21.0853Z" fill="#899292"/>
</svg>
