<svg width="1292" height="221" viewBox="0 0 1292 221" fill="none" xmlns="http://www.w3.org/2000/svg"><path d="M371 220H215V1h152.88v28.157H244.64v159.557H371V220z" fill="#343F3F"/><path d="M347.964 95.804l-94.184 1.563 15.273 28.225 98.38-1.557-19.469-28.23zM1137.81 221H1108V2h53.34l98.85 199.916V2H1290v219h-53.34l-98.85-199.916V221zM894 220h32.016l25.738-75.086L993.5 23.839l41.75 121.075L1060.98 220H1093L1017.67 1h-48.339L894 220z" fill="#343F3F"/><path fill-rule="evenodd" clip-rule="evenodd" d="M491.448 84.569l11.396 17.006h.596l-.255.536 11.002 16.397 67.69 101.634h-.016l.004.006h-35.783l-3.715-5.574-48.756-72.853-52.184 78.421h-34.293l54.57-81.872h29.812l-1.419-2.129-11.396-17.006h-.596l.255-.536-11.002-16.397L399.668.568h.016l-.004-.006h35.783l3.714 5.572 48.757 72.856L540.118.568h34.292L519.841 82.44h-29.812l1.419 2.129z" fill="#343F3F"/><path d="M647.688 220H618V0h53.125L743 198.314 814.875 0H868v220h-29.687V25.771L768 220h-50L647.688 25.771V220zM29.81 220H0V0h53.345l98.845 200.845V.187H182V220h-53.345L29.81 19.155V220z" fill="#343F3F"/></svg>