<svg width="127" height="31" viewBox="0 0 127 31" fill="none" xmlns="http://www.w3.org/2000/svg"><g style="mix-blend-mode:plus-darker" fill="#343F3F"><path d="M2.844 25.945H0V4.969h5.09l9.431 19.15V4.987h2.845v20.958h-5.09L2.844 6.795v19.15zm32.658.056h-14.97V5.043h14.67v2.695H23.376v15.269h12.126v2.994z"/><path d="M33.279 14.108l-9.008.15 1.46 2.7 9.41-.15-1.862-2.7z"/><path fill-rule="evenodd" clip-rule="evenodd" d="M55.64 26h-3.422L47.2 18.5 42.21 26h-3.28l5.219-7.83H47l-1.226-1.83h-.057l.026-.055-1.05-1.565-5.108-7.67L38.216 5h3.424l5.02 7.5L51.65 5h3.28l-5.22 7.83h-2.85l1.226 1.83h.057l-.026.055 1.05 1.565 5.109 7.671L55.644 26h-.003z"/><path d="M61.907 25.947h-2.844V4.988h5.09l6.886 18.893 6.886-18.893h5.09v20.959h-2.844V7.443l-6.737 18.504h-4.79L61.907 7.443v18.504zm23.616.054h3.054l2.456-7.185 3.982-11.587 3.982 11.587L101.452 26h3.054L97.32 5.043h-4.61l-7.187 20.958zm23.603 0h-2.845V5.043h5.09l9.431 19.132V5.043h2.845v20.958h-5.09L109.126 6.87v19.132z"/></g></svg>