<svg width="185" height="36" viewBox="0 0 185 36" fill="none" xmlns="http://www.w3.org/2000/svg"><g clip-path="url(#clip0_510_85233)" fill="#899292"><path d="M57.906 15.14a.221.221 0 01-.172-.063L50.09 8.719v6.294c0 .09-.04.127-.132.127h-1.487c-.092 0-.131-.038-.131-.127V6.766c0-.09.04-.128.131-.128h1.527c.066 0 .118.013.17.064l7.645 6.23V6.766c0-.09.04-.128.132-.128h1.487c.092 0 .131.039.131.128v8.247c0 .09-.039.127-.131.127h-1.526zm19.224-.153c.04.09.014.153-.091.153h-1.684a.172.172 0 01-.158-.089l-.671-1.162H67.75l-.671 1.162a.173.173 0 01-.158.09h-1.685c-.105 0-.144-.064-.092-.154l4.816-8.26a.173.173 0 01.158-.089h2.066c.065 0 .118.026.157.09l4.79 8.26zm-3.512-2.642l-2.487-4.302-2.487 4.29h4.974v.012zm20.156-5.707c.092 0 .132.039.132.128v8.247c0 .09-.04.127-.132.127h-1.487c-.092 0-.131-.038-.131-.127V9.958a.345.345 0 01-.04.165l-2.894 4.94a.173.173 0 01-.158.09h-1.54a.172.172 0 01-.157-.09l-2.882-4.94a.6.6 0 01-.04-.089v4.979c0 .09-.039.127-.131.127h-1.487c-.092 0-.132-.038-.132-.127V6.766c0-.09.04-.128.132-.128h1.487c.066 0 .092.013.119.051l3.867 6.46 3.87-6.46c.012-.038.052-.05.117-.05h1.487zm8.012 3.46h9.197c.092 0 .133.038.133.128v1.302c0 .09-.041.127-.133.127h-9.197v1.928h9.197c.092 0 .133.038.133.128v1.302c0 .09-.041.127-.133.127h-10.828c-.092 0-.132-.038-.132-.127V6.766c0-.09.04-.128.132-.128h10.828c.092 0 .133.039.133.128v1.302c0 .09-.041.128-.133.128h-9.197v1.902zm26.736-3.46c.092 0 .132.039.132.128v1.302c0 .09-.04.128-.132.128h-4.999v6.817c0 .09-.04.127-.132.127h-1.487c-.092 0-.132-.038-.132-.127V8.196h-4.999c-.093 0-.132-.038-.132-.128V6.766c0-.09.039-.128.132-.128h11.749zm11.962 4.149L145.629 15c.079.077 0 .14-.105.14h-2.277c-.065 0-.092-.038-.144-.102l-4.172-3.42h-2.96v3.395c0 .09-.039.127-.131.127h-1.487c-.092 0-.132-.038-.132-.127V6.766c0-.09.04-.128.132-.128h1.487c.092 0 .131.039.131.128v3.294h2.895l4.131-3.32c.066-.063.079-.102.145-.102h2.277c.105 0 .184.064.105.14l-5.04 4.01zm17.396-2.591v5.387h4.684c.092 0 .132.038.132.128v1.302c0 .09-.04.127-.132.127h-11.131c-.093 0-.132-.038-.132-.127V13.71c0-.09.039-.128.132-.128h4.683V8.196h-4.683c-.093 0-.132-.038-.132-.128V6.766c0-.09.039-.128.132-.128h11.131c.092 0 .132.039.132.128v1.302c0 .09-.04.128-.132.128h-4.684zm20.248 6.944a.223.223 0 01-.171-.063l-7.644-6.358v6.294c0 .09-.039.127-.131.127h-1.487c-.092 0-.133-.038-.133-.127V6.766c0-.09.041-.128.133-.128h1.526c.066 0 .118.013.171.064l7.644 6.23V6.766c0-.09.04-.128.132-.128h1.487c.092 0 .132.039.132.128v8.247c0 .09-.04.127-.132.127h-1.527zM59.815 21.359c.092 0 .132.038.132.127v1.302c0 .09-.04.128-.132.128h-5v6.817c0 .09-.04.128-.131.128h-1.487c-.092 0-.132-.038-.132-.128v-6.817h-5c-.092 0-.131-.038-.131-.128v-1.302c0-.089.04-.127.131-.127h11.75zm17.222 4.263c0 .127 0 .217-.013.268-.079 1.366-.776 2.438-1.869 3.064-1.078.613-2.394.906-3.907.932h-.263c-1.513-.026-2.83-.32-3.921-.932-1.08-.626-1.777-1.698-1.856-3.064-.013-.064-.013-.14-.013-.268v-.026c0-.115 0-.204.013-.268.08-1.366.777-2.45 1.856-3.064 1.092-.625 2.394-.931 3.92-.957h.264c1.513.026 2.829.332 3.907.957 1.093.613 1.79 1.698 1.869 3.064.013.077.013.166.013.294zm-5.79 2.668c.948-.013 1.869-.217 2.672-.626.815-.408 1.368-1.136 1.368-2.055 0-.92-.553-1.647-1.368-2.055a5.902 5.902 0 00-2.671-.626h-.25c-.948.013-1.869.217-2.684.626-.803.395-1.356 1.136-1.356 2.055 0 .92.553 1.647 1.356 2.055a6.36 6.36 0 002.684.626h.25zm22.527-6.931c.092 0 .132.038.132.127v8.247c0 .09-.04.128-.132.128h-1.487c-.065 0-.092-.013-.118-.051l-3.868-6.55-3.868 6.55c-.014.038-.053.05-.12.05h-1.486c-.092 0-.132-.037-.132-.127v-8.247c0-.089.04-.127.132-.127h1.487c.092 0 .132.038.132.127v4.979a.205.205 0 01.04-.077l2.88-4.94a.172.172 0 01.158-.09h1.54c.065 0 .119.026.158.09l2.895 4.94a.35.35 0 01.039.166V21.5c0-.09.04-.128.131-.128h1.487v-.012zm8.012 3.459h9.197c.092 0 .133.038.133.128v1.302c0 .09-.041.128-.133.128h-9.197v1.927h9.197c.092 0 .133.039.133.128v1.302c0 .09-.041.128-.133.128h-10.828c-.092 0-.132-.038-.132-.128v-8.247c0-.089.04-.127.132-.127h10.828c.092 0 .133.038.133.127v1.302c0 .09-.041.128-.133.128h-9.197v1.902zm25.054 5.042a.16.16 0 01-.158-.101l-1.447-3.294h-6.447v3.268c0 .09-.04.128-.133.128h-1.486c-.093 0-.132-.038-.132-.128v-8.247c0-.089.039-.127.132-.127h8.829c.724 0 1.355.242 1.855.753.513.498.776 1.098.776 1.8 0 .523-.144.996-.434 1.417a2.567 2.567 0 01-1.158.932l1.526 3.447c.04.102.014.153-.092.153h-1.631zm-8.052-6.944v1.992h7.21c.249 0 .46-.103.618-.307.171-.217.25-.447.25-.69 0-.242-.092-.472-.25-.676-.171-.217-.382-.319-.618-.319h-7.21zm-81.065 7.288L19.289 18.64l-.355-.64V6.434l.789-.766h18.434l.79.766V29.58l-1.224.625zM20.499 17.593l16.855 10.583V7.187H20.5v10.405z"/><path d="M19.723 30.333H1.29l-.79-.766V6.435l1.21-.638 18.434 11.566.356.638v11.566l-.777.766zM2.08 28.813h16.855v-10.39L2.079 7.838v20.975z"/></g><defs><clipPath id="clip0_510_85233"><path fill="#fff" transform="translate(.5)" d="M0 0h184v36H0z"/></clipPath></defs></svg>