<svg width="170" height="37" viewBox="0 0 170 37" fill="none" xmlns="http://www.w3.org/2000/svg"><g clip-path="url(#clip0_510_85249)" fill="#899292"><path d="M49.089.115h-5.474v20.863h5.474V.115zm-11.84 20.863h5.473L35.238.115h-5.584L22.28 20.978h5.474l.893-2.651h7.596l1.005 2.651zm-6.925-7.262l2.122-6.109 2.122 6.11h-4.244zm35.967 7.262l2.905-8.299V.115h-5.474v10.72L57.356.115h-5.362v20.863h5.362v-10.95l6.366 10.835v.115h2.57zM21.164.115h-5.473l-4.915 10.49L5.973.114H3.292L.5 8.07v12.91h5.362V10.834l2.792 5.994h4.245l2.792-6.11v10.26h5.473V.114zm95.838 13.947c-.67-1.152-1.229-1.96-2.346-2.42 3.128-.23 5.027-2.306 5.027-5.648 0-3.689-2.234-5.879-5.809-5.879h-8.601v20.978h1.006c.223 0 .335-.115.335-.346v-8.76h4.691c2.346 0 3.463.807 4.468 2.767l3.128 6.455h1.563l-3.462-7.147zm-2.904-3.573h-7.484V1.268h7.149c3.127 0 4.803 1.844 4.579 5.187-.223 2.305-2.01 4.034-4.244 4.034zM74.445 2.306c1.006-.923 2.57-1.384 4.468-1.384 3.24 0 5.027 1.268 6.255 3.92l.224.345.335-.115.558-.23.336-.116-.112-.346c-1.452-3.112-3.686-4.61-7.484-4.61-1.452 0-2.793.23-3.798.691l-.782 1.845zm5.137 7.492c-3.016-.346-6.031-.807-6.367-3.804l-.782 2.19c1.23 2.19 4.133 2.65 6.814 2.997 3.128.346 6.032.807 6.032 4.264 0 3.113-2.122 4.611-6.255 4.611-3.24 0-5.25-1.383-6.479-4.38v-.346l-.112.115-.558 1.614c1.452 2.997 3.686 4.38 7.372 4.38 5.026 0 7.596-2.19 7.596-5.994-.224-4.61-3.798-5.302-7.26-5.647zm55.066 9.912h-9.718v-8.76h12.846l.558-1.268H124.93V1.268h16.42L141.908 0H123.59v20.978h10.611l.447-1.268zM145.709 0l-.447 1.268h16.308v19.71h1.34V1.268h6.59V0h-23.791zM88.07 0v1.268h6.479v19.71h1.34V1.267h6.479V0H88.07z"/><path d="M106.614 19.595h-1.341v1.383h1.341v-1.383zm42.444.115h-10.611L138 20.978h10.611l.447-1.268zm3.575-10.028h-10.5l-.445 1.268h10.498l.447-1.268zM19.376 36.769h-.224c-.223 0-.223 0-.335-.115l-.893-1.845c-.224-.46-.559-.691-1.117-.691h-.782v2.535c0 .116 0 .116-.112.116h-.223c-.112 0-.112 0-.112-.115V31.12c0-.115 0-.115.112-.115h.223c.112 0 .112 0 .112.115v2.42h1.005l1.787-2.42c.112-.115.112-.115.335-.115h.336c.111 0 .111.115.111.115L17.7 33.657c.447.115.782.46 1.006.922l1.005 2.075c-.223.115-.223.115-.335.115zm6.367-4.38c0 .691-.223 1.152-.781 1.268.558.115 1.005.691 1.005 1.498 0 1.038-.67 1.614-1.676 1.614h-2.345c-.112 0-.112 0-.112-.115V31.12c0-.115 0-.115.112-.115h2.234c1.005-.116 1.563.46 1.563 1.383zm-1.563-.922h-1.788v2.075h1.788c.67 0 1.005-.346 1.005-1.038 0-.691-.335-1.037-1.005-1.037zm.111 2.65h-1.899v2.19h1.9c.67 0 1.116-.345 1.116-1.037 0-.806-.447-1.152-1.117-1.152zm8.491 2.653h-.223c-.224 0-.224 0-.335-.116l-.559-1.614h-2.457l-.67 1.614c0 .115-.112.115-.336.115h-.223c-.112 0-.112-.115-.112-.115l2.122-5.648c0-.115.112-.115.224-.115h.223c.112 0 .224 0 .224.115l2.122 5.763c.112 0 .112 0 0 0zm-2.346-5.303s0 .346-.111.576l-1.006 2.536h2.123l-1.006-2.536v-.576zm8.824 1.268c0 1.153-.671 1.844-1.788 1.844h-1.676v2.075c0 .115 0 .115-.111.115h-.224c-.111 0-.111 0-.111-.115V31.12c0-.115 0-.115.111-.115h2.01c1.118-.115 1.788.576 1.788 1.729zm-.56 0c0-.807-.446-1.268-1.228-1.268h-1.676v2.536h1.676c.67 0 1.229-.461 1.229-1.268zm6.703-1.613v.23c0 .115 0 .115-.111.115h-1.564v5.187c0 .115 0 .115-.112.115h-.223c-.112 0-.112 0-.112-.115v-5.187h-1.564c-.111 0-.111 0-.111-.115v-.23c0-.116 0-.116.111-.116h3.798c-.224-.115-.112 0-.112.116zm5.92 5.647h-.224c-.223 0-.223 0-.335-.115l-.558-1.614h-2.458l-.558 1.614c0 .115-.112.115-.335.115h-.224c-.111 0-.111-.115-.111-.115l2.122-5.648c0-.116.111-.116.223-.116h.224c.111 0 .223 0 .223.116l2.122 5.648c.112.115 0 .115-.111.115zm-2.346-5.302s0 .346-.112.576L47.86 34.58h2.122l-1.005-2.536v-.576zm8.823-.345v5.532c0 .115 0 .115-.112.115h-.224c-.111 0-.111 0-.111-.115v-5.187h-2.346v1.499c0 3.227-.67 3.573-1.34 3.919-.112 0-.112 0-.224-.115l-.112-.231c-.111-.115 0-.115.112-.23.559-.346 1.005-.577 1.005-3.343V31.12c0-.115 0-.115.112-.115h3.016c.112-.115.223 0 .223.116zm10.5 0v5.532c0 .115 0 .115-.11.115h-.224c-.112 0-.112 0-.112-.115v-2.536h-3.016v2.536c0 .115 0 .115-.111.115h-.447c-.112 0-.112 0-.112-.115v-5.533c0-.115 0-.115.112-.115h.223c.112 0 .112 0 .112.116v2.42h3.016v-2.42c0-.116 0-.116.111-.116h.224c.335-.115.335 0 .335.116zm7.148 5.647h-.224c-.223 0-.223 0-.335-.115l-.558-1.614h-2.458l-.558 1.614c0 .115-.112.115-.335.115h-.224c-.112 0-.112-.115-.112-.115l2.123-5.648c0-.116.112-.116.223-.116h.224c.111 0 .223 0 .223.116l2.01 5.763c.112 0 .112 0 0 0zm-2.346-5.302s0 .346-.112.576l-1.005 2.536h2.122l-.894-2.536c-.111-.23-.111-.576-.111-.576zm12.288 5.302h-.224c-.223 0-.223 0-.335-.115l-.894-1.845c-.223-.46-.558-.691-1.117-.691h-.781v2.535c0 .116 0 .116-.112.116h-.224c-.111 0-.111 0-.111-.115V31.12c0-.115 0-.115.112-.115h.223c.112 0 .112 0 .112.115v2.42h1.005l1.787-2.42c.112-.115.112-.115.335-.115h.335c.112 0 .112.115.112.115l-1.899 2.536c.447.115.782.46 1.005.922l1.006 2.075c-.224.115-.224.115-.335.115zm6.479-5.647l-2.681 5.532c-.112.115-.112.115-.224.115h-.335c-.111 0-.111-.115-.111-.115l.782-1.498-2.01-4.034c0-.116 0-.116.11-.116h.224c.224 0 .224 0 .335.116l1.676 3.342 1.563-3.342c.112-.116.112-.116.336-.116h.223c.112-.115.112 0 .112.116zm5.921 0v.23c0 .116 0 .116-.111.116h-1.564v5.186c0 .116 0 .116-.112.116h-.446c-.112 0-.112 0-.112-.116v-5.187H93.88c-.112 0-.112 0-.112-.115v-.23c0-.116 0-.116.112-.116l3.91.116c0-.116 0-.23 0 0zm6.364 0l-2.681 5.532c-.112.115-.112.115-.223.115h-.335c-.112 0-.112-.115-.112-.115l.782-1.498-2.01-4.034c0-.116 0-.116.11-.116h.224c.224 0 .224 0 .335.116l1.676 3.342 1.564-3.342c.111-.116.111-.116.335-.116h.223c.112-.115.112 0 .112.116zm5.252 2.65c.67.23.893.807.893 1.384 0 1.037-.67 1.728-2.01 1.728-1.341 0-2.011-.576-2.234-1.383 0-.115 0-.23.111-.23l.224-.115c.111 0 .111 0 .223.115.224.691.67 1.037 1.676 1.037 1.005 0 1.452-.461 1.452-1.152 0-.692-.335-1.153-1.006-1.153h-1.34c-.112 0-.112 0-.112-.115v-.231c0-.115 0-.115.112-.115h1.34c.671 0 1.006-.461 1.006-1.038 0-.691-.447-1.152-1.341-1.152-1.005 0-1.452.346-1.675 1.037 0 .115-.112.115-.224.115l-.223-.115c-.112 0-.112-.115-.112-.23.335-.923.894-1.384 2.234-1.384 1.229 0 1.899.577 1.899 1.614-.111.692-.335 1.153-.893 1.383zm5.586-2.997c1.452 0 2.234.807 2.234 2.075v1.96c0 1.268-.782 2.074-2.234 2.074s-2.234-.806-2.234-2.074v-1.96c0-1.268.782-2.075 2.234-2.075zm0 .577c-1.005 0-1.676.576-1.676 1.498v1.96c0 .922.559 1.498 1.676 1.498 1.005 0 1.564-.576 1.564-1.498v-1.96c0-.922-.559-1.498-1.564-1.498zm8.822 1.037c0 .691-.224 1.152-.782 1.268.558.115 1.005.691 1.005 1.498 0 1.038-.67 1.614-1.675 1.614h-2.346c-.112 0-.112 0-.112-.115V31.12c0-.115 0-.115.112-.115h2.234c1.005-.116 1.564.46 1.564 1.383zm-1.676-.922h-1.787v2.075h1.787c.67 0 1.006-.346 1.006-1.038 0-.691-.336-1.037-1.006-1.037zm.112 2.65h-1.899v2.19h1.899c.67 0 1.117-.345 1.117-1.037 0-.806-.335-1.152-1.117-1.152zm6.369-3.342c1.228 0 1.899.461 2.122 1.384 0 .115 0 .23-.112.23l-.223.115c-.112 0-.112 0-.223-.115-.224-.692-.671-1.037-1.564-1.037-1.006 0-1.564.576-1.564 1.498v1.96c0 .922.558 1.498 1.564 1.498.893 0 1.34-.346 1.564-1.037 0-.115.111-.115.223-.115l.223.115c.112 0 .112.115.112.23-.335.922-.894 1.499-2.122 1.499-1.452 0-2.234-.807-2.234-2.075v-1.96c0-1.383.782-2.19 2.234-2.19zm8.601 5.994h-.224c-.223 0-.223 0-.335-.115l-.893-1.845c-.224-.46-.559-.691-1.117-.691h-.782v2.535c0 .116 0 .116-.112.116h-.223c-.112 0-.112 0-.112-.115V31.12c0-.115 0-.115.112-.115h.223c.112 0 .112 0 .112.115v2.42h1.005l1.787-2.42c.112-.115.112-.115.335-.115h.335c.112 0 .112.115.112.115l-1.899 2.536c.447.115.782.46 1.005.922l1.006 2.075c-.224.115-.224.115-.335.115zm4.469-5.994c1.452 0 2.234.807 2.234 2.075v1.96c0 1.268-.782 2.074-2.234 2.074s-2.234-.806-2.234-2.074v-1.96c0-1.268.782-2.075 2.234-2.075zm0 .577c-1.005 0-1.675.576-1.675 1.498v1.96c0 .922.558 1.498 1.675 1.498 1.005 0 1.564-.576 1.564-1.498v-1.96c0-.922-.559-1.498-1.564-1.498zm9.941-.23v5.532c0 .116 0 .116-.112.116h-.223c-.112 0-.112 0-.112-.116v-3.342c0-.461 0-.922.112-1.499-.224.461-.447.922-.671 1.268l-1.228 2.19c0 .115-.112.115-.224.115h-.111c-.112 0-.112 0-.224-.115l-1.229-2.19c-.223-.46-.446-.807-.558-1.268.112.577.112 1.038.112 1.499v3.342c0 .116 0 .116-.112.116h-.223c-.112 0-.112 0-.112-.116v-5.532c0-.116 0-.116.112-.116h.223c.112 0 .223 0 .223.116l2.011 3.573 2.011-3.573c.111-.116.111-.116.223-.116l.112.116c0-.116 0-.23 0 0z"/></g><defs><clipPath id="clip0_510_85249"><path fill="#fff" transform="translate(.5)" d="M0 0h169v37H0z"/></clipPath></defs></svg>