<svg width="187" height="34" viewBox="0 0 187 34" fill="none" xmlns="http://www.w3.org/2000/svg"><path d="M3.61 25.926V8.075h11.473v3.3h-7.82v14.55H3.609zM16.325 17c-.036-2.543.884-4.733 2.76-6.572 1.895-1.84 4.132-2.732 6.712-2.678 2.58-.054 4.816.838 6.71 2.678 1.913 1.839 2.851 4.03 2.815 6.572.036 2.542-.902 4.733-2.814 6.572-1.895 1.84-4.132 2.732-6.712 2.678-2.58.054-4.816-.838-6.71-2.678-1.877-1.839-2.797-4.03-2.76-6.572zm15.236 0c0-1.695-.55-3.092-1.651-4.192-1.083-1.118-2.445-1.677-4.086-1.677-1.66 0-3.031.55-4.114 1.65-1.082 1.1-1.623 2.506-1.623 4.219 0 1.713.54 3.12 1.623 4.22 1.083 1.1 2.454 1.65 4.114 1.65 1.641 0 3.003-.55 4.086-1.65 1.1-1.1 1.65-2.507 1.65-4.22zm6.853 8.926V8.075h11.474v3.3h-7.82v14.55h-3.654zM51.128 17c-.036-2.542.884-4.733 2.76-6.572 1.894-1.84 4.132-2.732 6.712-2.678 2.579-.054 4.816.838 6.71 2.678 1.912 1.839 2.85 4.03 2.814 6.572.037 2.542-.901 4.733-2.814 6.572-1.894 1.84-4.131 2.732-6.71 2.678-2.58.054-4.818-.838-6.712-2.678-1.876-1.839-2.796-4.03-2.76-6.572zm15.235 0c0-1.695-.55-3.092-1.65-4.192-1.083-1.118-2.445-1.677-4.087-1.677-1.66 0-3.03.55-4.113 1.65-1.082 1.1-1.623 2.506-1.623 4.219 0 1.713.54 3.12 1.623 4.22 1.083 1.1 2.454 1.65 4.113 1.65 1.642 0 3.004-.55 4.086-1.65 1.101-1.1 1.651-2.507 1.651-4.22zm8.642-8.925h12.258v17.85H83.61v-14.55h-5.14c-.072 3.804-.334 6.788-.785 8.952-.433 2.164-1.046 3.678-1.84 4.544-.776.847-1.822 1.29-3.139 1.325-.542 0-1.056-.09-1.543-.27v-3.11c.144.035.388.053.73.053 1.084 0 1.85-.892 2.301-2.677.47-1.785.73-4.725.785-8.818l.027-3.3zm16.368 17.851V8.075h3.653v6.14h3.248c1.912 0 3.472.55 4.681 1.65 1.227 1.081 1.84 2.478 1.84 4.191 0 1.75-.613 3.165-1.84 4.247-1.209 1.082-2.769 1.623-4.681 1.623h-6.901zm3.653-3.219h3.248c.865 0 1.542-.234 2.029-.703.506-.487.758-1.127.758-1.92 0-.812-.252-1.461-.758-1.948-.487-.487-1.163-.73-2.03-.73h-3.247v5.301zm19.656 3.219V8.075h14.938v17.85h-3.654v-14.55h-7.631v14.55h-3.653zm30.555-.001l-1.002-2.326h-7.306l-1.002 2.326h-3.923l7.983-18.175h1.218l7.955 18.175h-3.923zm-2.273-5.328l-2.382-6.031-2.381 6.031h4.763zm8.636 5.329V8.075h6.71c1.877 0 3.419.532 4.628 1.596 1.209 1.063 1.813 2.452 1.813 4.165 0 1.695-.604 3.083-1.813 4.165-1.209 1.082-2.751 1.623-4.628 1.623h-3.057v6.302H151.6zm3.653-9.494h3.057c.849 0 1.507-.234 1.976-.703.487-.487.73-1.118.73-1.893 0-.758-.252-1.37-.757-1.84-.487-.468-1.137-.703-1.949-.703h-3.057v5.14zm28.137 9.494h-4.411l-7.658-9.304v9.304h-3.653V8.075h3.653v8.276l6.819-8.276h4.357l-6.846 8.411 7.739 9.44z" fill="#899292"/></svg>