<svg width="173" height="28" viewBox="0 0 173 28" fill="none" xmlns="http://www.w3.org/2000/svg"><path fill-rule="evenodd" clip-rule="evenodd" d="M21.356 7.042v14.032l5.215 5.152v-14.03l-5.215-5.154zm-.484 14.51H6.678l5.217 5.155H26.09l-5.218-5.155zm-15.167 0V6.57L.5 1.419v25.288h10.429l-5.217-5.155h-.007zm.478-15.465H21.35l5.22 5.152V.941H.983L6.19 6.087h-.007zm34.832 7.898c0 6.322 1.808 8.76 5.081 8.76 3.41 0 5.119-2.459 5.119-8.76 0-6.3-1.747-8.715-5.119-8.715s-5.081 2.435-5.081 8.715zm16.45 0c0 8.154-4.247 13.074-11.369 13.074s-11.303-4.776-11.303-13.074c0-8.108 4.248-13.032 11.332-13.032 7.085 0 11.37 4.743 11.37 13.032h-.03zM78.986 3.684l-2.903 3.41a6.676 6.676 0 00-4.505-1.79c-3.202 0-5.45 2.545-5.45 8.65 0 5.997 2.219 8.546 5.558 8.546 1.995 0 3.451-.971 4.912-2.086l2.679 3.447a11.08 11.08 0 01-3.616 2.378 11.194 11.194 0 01-4.265.82c-6.902 0-11.515-4.595-11.515-13.118 0-8.33 4.87-13 11.336-13 3.419 0 5.704 1.009 7.774 2.73l-.005.013zm8.9 12.099v10.659H81.93V1.57h5.956v9.618h7.558V1.57h5.96v24.872h-5.96V15.783h-7.558zm22.775-1.798c0 6.322 1.816 8.76 5.085 8.76 3.418 0 5.131-2.459 5.131-8.76 0-6.3-1.75-8.715-5.131-8.715-3.381 0-5.085 2.435-5.085 8.715zm16.455 0c0 8.154-4.248 13.074-11.37 13.074-7.122 0-11.328-4.776-11.328-13.074 0-8.108 4.247-13.032 11.328-13.032 7.08 0 11.37 4.743 11.37 13.032zm11.138 8.193c2.799 0 4.799-.578 4.799-3.304 0-2.513-1.776-3.447-4.36-3.447h-2.614v6.751h2.175zm-2.175-10.658h2.216c2.489 0 3.775-.935 3.775-3.018 0-2.082-1.378-2.763-4.252-2.763h-1.739v5.78zm13.109 7.678c0 5.678-4.65 7.252-10.967 7.252h-8.102V1.57h7.118c6.753 0 10.897 1.685 10.897 6.354 0 3.157-2.29 4.81-4.617 5.33 2.8.533 5.667 1.898 5.667 5.92l.004.024zm12.005-13.354l-2.646 10.986h5.301l-2.655-10.986zm-3.662 15.241l-1.273 5.33h-6.156l7.591-24.876h7.23l7.578 24.908h-6.33l-1.307-5.329-7.333-.033z" fill="#899292"/></svg>